<svg xmlns="http://www.w3.org/2000/svg" xmlns:xlink="http://www.w3.org/1999/xlink" width="1920" zoomAndPan="magnify" viewBox="0 0 1440 809.999993" height="1080" preserveAspectRatio="xMidYMid meet" version="1.0"><defs><g/><clipPath id="bb41216a0b"><path d="M 705.007812 294.632812 L 926.179688 294.632812 L 926.179688 515.804688 L 705.007812 515.804688 Z M 705.007812 294.632812 " clip-rule="nonzero"/></clipPath></defs><g fill="#ff0000" fill-opacity="1"><g transform="translate(64.696203, 516.03456)"><g><path d="M 95.09375 -146.96875 L 81.546875 -103.171875 L 126.796875 -103.171875 L 113.25 -146.96875 C 112.476562 -148.695312 111.660156 -149.941406 110.796875 -150.703125 C 109.929688 -151.472656 108.925781 -151.859375 107.78125 -151.859375 L 100.578125 -151.859375 C 99.421875 -151.859375 98.410156 -151.472656 97.546875 -150.703125 C 96.679688 -149.941406 95.863281 -148.695312 95.09375 -146.96875 Z M 78.671875 -10.375 C 78.671875 -6.726562 77.851562 -4.085938 76.21875 -2.453125 C 74.582031 -0.816406 71.941406 0 68.296875 0 L 25.9375 0 C 22.28125 0 19.632812 -0.816406 18 -2.453125 C 16.375 -4.085938 15.5625 -6.726562 15.5625 -10.375 L 15.5625 -86.453125 C 15.5625 -92.210938 16.472656 -98.835938 18.296875 -106.328125 C 20.117188 -113.828125 22.953125 -122.570312 26.796875 -132.5625 L 51.875 -197.96875 C 53.019531 -201.238281 54.789062 -203.640625 57.1875 -205.171875 C 59.59375 -206.710938 62.71875 -207.484375 66.5625 -207.484375 L 144.078125 -207.484375 C 147.734375 -207.484375 150.757812 -206.710938 153.15625 -205.171875 C 155.5625 -203.640625 157.34375 -201.238281 158.5 -197.96875 L 183.5625 -132.5625 C 187.40625 -122.570312 190.238281 -113.828125 192.0625 -106.328125 C 193.882812 -98.835938 194.796875 -92.210938 194.796875 -86.453125 L 194.796875 -10.375 C 194.796875 -6.726562 193.976562 -4.085938 192.34375 -2.453125 C 190.71875 -0.816406 188.082031 0 184.4375 0 L 140.921875 0 C 137.078125 0 134.238281 -0.816406 132.40625 -2.453125 C 130.582031 -4.085938 129.671875 -6.726562 129.671875 -10.375 L 129.671875 -50.71875 L 78.671875 -50.71875 Z M 78.671875 -10.375 "/></g></g></g><g fill="#ff0000" fill-opacity="1"><g transform="translate(275.060772, 516.03456)"><g><path d="M 73.484375 0 L 30.265625 0 C 26.609375 0 23.960938 -0.816406 22.328125 -2.453125 C 20.703125 -4.085938 19.890625 -6.726562 19.890625 -10.375 L 19.890625 -197.109375 C 19.890625 -200.753906 20.703125 -203.394531 22.328125 -205.03125 C 23.960938 -206.664062 26.609375 -207.484375 30.265625 -207.484375 L 60.234375 -207.484375 C 63.878906 -207.484375 67 -206.90625 69.59375 -205.75 C 72.1875 -204.601562 74.734375 -202.585938 77.234375 -199.703125 L 133.140625 -135.734375 L 133.140625 -197.109375 C 133.140625 -200.753906 133.953125 -203.394531 135.578125 -205.03125 C 137.210938 -206.664062 139.859375 -207.484375 143.515625 -207.484375 L 186.734375 -207.484375 C 190.378906 -207.484375 193.019531 -206.664062 194.65625 -205.03125 C 196.289062 -203.394531 197.109375 -200.753906 197.109375 -197.109375 L 197.109375 -10.375 C 197.109375 -6.726562 196.289062 -4.085938 194.65625 -2.453125 C 193.019531 -0.816406 190.378906 0 186.734375 0 L 143.515625 0 C 139.859375 0 137.210938 -0.816406 135.578125 -2.453125 C 133.953125 -4.085938 133.140625 -6.726562 133.140625 -10.375 L 133.140625 -45.8125 L 83.859375 -105.46875 L 83.859375 -10.375 C 83.859375 -6.726562 83.039062 -4.085938 81.40625 -2.453125 C 79.769531 -0.816406 77.128906 0 73.484375 0 Z M 73.484375 0 "/></g></g></g><g fill="#ff0000" fill-opacity="1"><g transform="translate(492.053283, 516.03456)"><g><path d="M 117.859375 0 L 71.171875 0 C 67.523438 0 64.882812 -0.816406 63.25 -2.453125 C 61.613281 -4.085938 60.796875 -6.726562 60.796875 -10.375 L 60.796875 -151.859375 L 18.4375 -151.859375 C 14.789062 -151.859375 12.148438 -152.675781 10.515625 -154.3125 C 8.878906 -155.945312 8.0625 -158.585938 8.0625 -162.234375 L 8.0625 -197.109375 C 8.0625 -200.753906 8.878906 -203.394531 10.515625 -205.03125 C 12.148438 -206.664062 14.789062 -207.484375 18.4375 -207.484375 L 170.59375 -207.484375 C 174.25 -207.484375 176.890625 -206.664062 178.515625 -205.03125 C 180.148438 -203.394531 180.96875 -200.753906 180.96875 -197.109375 L 180.96875 -162.234375 C 180.96875 -158.585938 180.148438 -155.945312 178.515625 -154.3125 C 176.890625 -152.675781 174.25 -151.859375 170.59375 -151.859375 L 128.234375 -151.859375 L 128.234375 -10.375 C 128.234375 -6.726562 127.414062 -4.085938 125.78125 -2.453125 C 124.15625 -0.816406 121.515625 0 117.859375 0 Z M 117.859375 0 "/></g></g></g><g fill="#00ffff" fill-opacity="1"><g transform="translate(79.712493, 502.03165)"><g><path d="M 95.09375 -146.96875 L 81.546875 -103.171875 L 126.796875 -103.171875 L 113.25 -146.96875 C 112.476562 -148.695312 111.660156 -149.941406 110.796875 -150.703125 C 109.929688 -151.472656 108.925781 -151.859375 107.78125 -151.859375 L 100.578125 -151.859375 C 99.421875 -151.859375 98.410156 -151.472656 97.546875 -150.703125 C 96.679688 -149.941406 95.863281 -148.695312 95.09375 -146.96875 Z M 78.671875 -10.375 C 78.671875 -6.726562 77.851562 -4.085938 76.21875 -2.453125 C 74.582031 -0.816406 71.941406 0 68.296875 0 L 25.9375 0 C 22.28125 0 19.632812 -0.816406 18 -2.453125 C 16.375 -4.085938 15.5625 -6.726562 15.5625 -10.375 L 15.5625 -86.453125 C 15.5625 -92.210938 16.472656 -98.835938 18.296875 -106.328125 C 20.117188 -113.828125 22.953125 -122.570312 26.796875 -132.5625 L 51.875 -197.96875 C 53.019531 -201.238281 54.789062 -203.640625 57.1875 -205.171875 C 59.59375 -206.710938 62.71875 -207.484375 66.5625 -207.484375 L 144.078125 -207.484375 C 147.734375 -207.484375 150.757812 -206.710938 153.15625 -205.171875 C 155.5625 -203.640625 157.34375 -201.238281 158.5 -197.96875 L 183.5625 -132.5625 C 187.40625 -122.570312 190.238281 -113.828125 192.0625 -106.328125 C 193.882812 -98.835938 194.796875 -92.210938 194.796875 -86.453125 L 194.796875 -10.375 C 194.796875 -6.726562 193.976562 -4.085938 192.34375 -2.453125 C 190.71875 -0.816406 188.082031 0 184.4375 0 L 140.921875 0 C 137.078125 0 134.238281 -0.816406 132.40625 -2.453125 C 130.582031 -4.085938 129.671875 -6.726562 129.671875 -10.375 L 129.671875 -50.71875 L 78.671875 -50.71875 Z M 78.671875 -10.375 "/></g></g></g><g fill="#00ffff" fill-opacity="1"><g transform="translate(290.077062, 502.03165)"><g><path d="M 73.484375 0 L 30.265625 0 C 26.609375 0 23.960938 -0.816406 22.328125 -2.453125 C 20.703125 -4.085938 19.890625 -6.726562 19.890625 -10.375 L 19.890625 -197.109375 C 19.890625 -200.753906 20.703125 -203.394531 22.328125 -205.03125 C 23.960938 -206.664062 26.609375 -207.484375 30.265625 -207.484375 L 60.234375 -207.484375 C 63.878906 -207.484375 67 -206.90625 69.59375 -205.75 C 72.1875 -204.601562 74.734375 -202.585938 77.234375 -199.703125 L 133.140625 -135.734375 L 133.140625 -197.109375 C 133.140625 -200.753906 133.953125 -203.394531 135.578125 -205.03125 C 137.210938 -206.664062 139.859375 -207.484375 143.515625 -207.484375 L 186.734375 -207.484375 C 190.378906 -207.484375 193.019531 -206.664062 194.65625 -205.03125 C 196.289062 -203.394531 197.109375 -200.753906 197.109375 -197.109375 L 197.109375 -10.375 C 197.109375 -6.726562 196.289062 -4.085938 194.65625 -2.453125 C 193.019531 -0.816406 190.378906 0 186.734375 0 L 143.515625 0 C 139.859375 0 137.210938 -0.816406 135.578125 -2.453125 C 133.953125 -4.085938 133.140625 -6.726562 133.140625 -10.375 L 133.140625 -45.8125 L 83.859375 -105.46875 L 83.859375 -10.375 C 83.859375 -6.726562 83.039062 -4.085938 81.40625 -2.453125 C 79.769531 -0.816406 77.128906 0 73.484375 0 Z M 73.484375 0 "/></g></g></g><g fill="#00ffff" fill-opacity="1"><g transform="translate(507.069573, 502.03165)"><g><path d="M 117.859375 0 L 71.171875 0 C 67.523438 0 64.882812 -0.816406 63.25 -2.453125 C 61.613281 -4.085938 60.796875 -6.726562 60.796875 -10.375 L 60.796875 -151.859375 L 18.4375 -151.859375 C 14.789062 -151.859375 12.148438 -152.675781 10.515625 -154.3125 C 8.878906 -155.945312 8.0625 -158.585938 8.0625 -162.234375 L 8.0625 -197.109375 C 8.0625 -200.753906 8.878906 -203.394531 10.515625 -205.03125 C 12.148438 -206.664062 14.789062 -207.484375 18.4375 -207.484375 L 170.59375 -207.484375 C 174.25 -207.484375 176.890625 -206.664062 178.515625 -205.03125 C 180.148438 -203.394531 180.96875 -200.753906 180.96875 -197.109375 L 180.96875 -162.234375 C 180.96875 -158.585938 180.148438 -155.945312 178.515625 -154.3125 C 176.890625 -152.675781 174.25 -151.859375 170.59375 -151.859375 L 128.234375 -151.859375 L 128.234375 -10.375 C 128.234375 -6.726562 127.414062 -4.085938 125.78125 -2.453125 C 124.15625 -0.816406 121.515625 0 117.859375 0 Z M 117.859375 0 "/></g></g></g><g fill="#000000" fill-opacity="1"><g transform="translate(72.204348, 509.033105)"><g><path d="M 95.09375 -146.96875 L 81.546875 -103.171875 L 126.796875 -103.171875 L 113.25 -146.96875 C 112.476562 -148.695312 111.660156 -149.941406 110.796875 -150.703125 C 109.929688 -151.472656 108.925781 -151.859375 107.78125 -151.859375 L 100.578125 -151.859375 C 99.421875 -151.859375 98.410156 -151.472656 97.546875 -150.703125 C 96.679688 -149.941406 95.863281 -148.695312 95.09375 -146.96875 Z M 78.671875 -10.375 C 78.671875 -6.726562 77.851562 -4.085938 76.21875 -2.453125 C 74.582031 -0.816406 71.941406 0 68.296875 0 L 25.9375 0 C 22.28125 0 19.632812 -0.816406 18 -2.453125 C 16.375 -4.085938 15.5625 -6.726562 15.5625 -10.375 L 15.5625 -86.453125 C 15.5625 -92.210938 16.472656 -98.835938 18.296875 -106.328125 C 20.117188 -113.828125 22.953125 -122.570312 26.796875 -132.5625 L 51.875 -197.96875 C 53.019531 -201.238281 54.789062 -203.640625 57.1875 -205.171875 C 59.59375 -206.710938 62.71875 -207.484375 66.5625 -207.484375 L 144.078125 -207.484375 C 147.734375 -207.484375 150.757812 -206.710938 153.15625 -205.171875 C 155.5625 -203.640625 157.34375 -201.238281 158.5 -197.96875 L 183.5625 -132.5625 C 187.40625 -122.570312 190.238281 -113.828125 192.0625 -106.328125 C 193.882812 -98.835938 194.796875 -92.210938 194.796875 -86.453125 L 194.796875 -10.375 C 194.796875 -6.726562 193.976562 -4.085938 192.34375 -2.453125 C 190.71875 -0.816406 188.082031 0 184.4375 0 L 140.921875 0 C 137.078125 0 134.238281 -0.816406 132.40625 -2.453125 C 130.582031 -4.085938 129.671875 -6.726562 129.671875 -10.375 L 129.671875 -50.71875 L 78.671875 -50.71875 Z M 78.671875 -10.375 "/></g></g></g><g fill="#000000" fill-opacity="1"><g transform="translate(282.568917, 509.033105)"><g><path d="M 73.484375 0 L 30.265625 0 C 26.609375 0 23.960938 -0.816406 22.328125 -2.453125 C 20.703125 -4.085938 19.890625 -6.726562 19.890625 -10.375 L 19.890625 -197.109375 C 19.890625 -200.753906 20.703125 -203.394531 22.328125 -205.03125 C 23.960938 -206.664062 26.609375 -207.484375 30.265625 -207.484375 L 60.234375 -207.484375 C 63.878906 -207.484375 67 -206.90625 69.59375 -205.75 C 72.1875 -204.601562 74.734375 -202.585938 77.234375 -199.703125 L 133.140625 -135.734375 L 133.140625 -197.109375 C 133.140625 -200.753906 133.953125 -203.394531 135.578125 -205.03125 C 137.210938 -206.664062 139.859375 -207.484375 143.515625 -207.484375 L 186.734375 -207.484375 C 190.378906 -207.484375 193.019531 -206.664062 194.65625 -205.03125 C 196.289062 -203.394531 197.109375 -200.753906 197.109375 -197.109375 L 197.109375 -10.375 C 197.109375 -6.726562 196.289062 -4.085938 194.65625 -2.453125 C 193.019531 -0.816406 190.378906 0 186.734375 0 L 143.515625 0 C 139.859375 0 137.210938 -0.816406 135.578125 -2.453125 C 133.953125 -4.085938 133.140625 -6.726562 133.140625 -10.375 L 133.140625 -45.8125 L 83.859375 -105.46875 L 83.859375 -10.375 C 83.859375 -6.726562 83.039062 -4.085938 81.40625 -2.453125 C 79.769531 -0.816406 77.128906 0 73.484375 0 Z M 73.484375 0 "/></g></g></g><g fill="#000000" fill-opacity="1"><g transform="translate(499.561428, 509.033105)"><g><path d="M 117.859375 0 L 71.171875 0 C 67.523438 0 64.882812 -0.816406 63.25 -2.453125 C 61.613281 -4.085938 60.796875 -6.726562 60.796875 -10.375 L 60.796875 -151.859375 L 18.4375 -151.859375 C 14.789062 -151.859375 12.148438 -152.675781 10.515625 -154.3125 C 8.878906 -155.945312 8.0625 -158.585938 8.0625 -162.234375 L 8.0625 -197.109375 C 8.0625 -200.753906 8.878906 -203.394531 10.515625 -205.03125 C 12.148438 -206.664062 14.789062 -207.484375 18.4375 -207.484375 L 170.59375 -207.484375 C 174.25 -207.484375 176.890625 -206.664062 178.515625 -205.03125 C 180.148438 -203.394531 180.96875 -200.753906 180.96875 -197.109375 L 180.96875 -162.234375 C 180.96875 -158.585938 180.148438 -155.945312 178.515625 -154.3125 C 176.890625 -152.675781 174.25 -151.859375 170.59375 -151.859375 L 128.234375 -151.859375 L 128.234375 -10.375 C 128.234375 -6.726562 127.414062 -4.085938 125.78125 -2.453125 C 124.15625 -0.816406 121.515625 0 117.859375 0 Z M 117.859375 0 "/></g></g></g><g fill="#ff0000" fill-opacity="1"><g transform="translate(681.100935, 516.03456)"><g/></g></g><g fill="#ff0000" fill-opacity="1"><g transform="translate(745.939333, 516.03456)"><g/></g></g><g fill="#ff0000" fill-opacity="1"><g transform="translate(810.77773, 516.03456)"><g/></g></g><g fill="#ff0000" fill-opacity="1"><g transform="translate(875.616117, 516.03456)"><g/></g></g><g fill="#00ffff" fill-opacity="1"><g transform="translate(696.117225, 502.03165)"><g/></g></g><g fill="#00ffff" fill-opacity="1"><g transform="translate(760.955623, 502.03165)"><g/></g></g><g fill="#00ffff" fill-opacity="1"><g transform="translate(825.794021, 502.03165)"><g/></g></g><g fill="#00ffff" fill-opacity="1"><g transform="translate(890.632407, 502.03165)"><g/></g></g><g fill="#000000" fill-opacity="1"><g transform="translate(688.60908, 509.033105)"><g/></g></g><g fill="#000000" fill-opacity="1"><g transform="translate(753.447478, 509.033105)"><g/></g></g><g fill="#000000" fill-opacity="1"><g transform="translate(818.285876, 509.033105)"><g/></g></g><g fill="#000000" fill-opacity="1"><g transform="translate(883.124262, 509.033105)"><g/></g></g><g fill="#ff0000" fill-opacity="1"><g transform="translate(940.454921, 516.03456)"><g><path d="M 73.484375 0 L 30.265625 0 C 26.609375 0 23.960938 -0.816406 22.328125 -2.453125 C 20.703125 -4.085938 19.890625 -6.726562 19.890625 -10.375 L 19.890625 -197.109375 C 19.890625 -200.753906 20.703125 -203.394531 22.328125 -205.03125 C 23.960938 -206.664062 26.609375 -207.484375 30.265625 -207.484375 L 60.234375 -207.484375 C 63.878906 -207.484375 67 -206.90625 69.59375 -205.75 C 72.1875 -204.601562 74.734375 -202.585938 77.234375 -199.703125 L 133.140625 -135.734375 L 133.140625 -197.109375 C 133.140625 -200.753906 133.953125 -203.394531 135.578125 -205.03125 C 137.210938 -206.664062 139.859375 -207.484375 143.515625 -207.484375 L 186.734375 -207.484375 C 190.378906 -207.484375 193.019531 -206.664062 194.65625 -205.03125 C 196.289062 -203.394531 197.109375 -200.753906 197.109375 -197.109375 L 197.109375 -10.375 C 197.109375 -6.726562 196.289062 -4.085938 194.65625 -2.453125 C 193.019531 -0.816406 190.378906 0 186.734375 0 L 143.515625 0 C 139.859375 0 137.210938 -0.816406 135.578125 -2.453125 C 133.953125 -4.085938 133.140625 -6.726562 133.140625 -10.375 L 133.140625 -45.8125 L 83.859375 -105.46875 L 83.859375 -10.375 C 83.859375 -6.726562 83.039062 -4.085938 81.40625 -2.453125 C 79.769531 -0.816406 77.128906 0 73.484375 0 Z M 73.484375 0 "/></g></g></g><g fill="#ff0000" fill-opacity="1"><g transform="translate(1157.44741, 516.03456)"><g><path d="M 125.0625 0 L 78.375 0 C 74.726562 0 72.085938 -0.816406 70.453125 -2.453125 C 68.828125 -4.085938 68.015625 -6.726562 68.015625 -10.375 L 68.015625 -47.265625 L 23.921875 -106.328125 C 19.503906 -112.285156 16.570312 -117.472656 15.125 -121.890625 C 13.6875 -126.316406 12.96875 -132.945312 12.96875 -141.78125 L 12.96875 -197.109375 C 12.96875 -200.753906 13.78125 -203.394531 15.40625 -205.03125 C 17.039062 -206.664062 19.6875 -207.484375 23.34375 -207.484375 L 67.71875 -207.484375 C 71.375 -207.484375 74.015625 -206.664062 75.640625 -205.03125 C 77.273438 -203.394531 78.09375 -200.753906 78.09375 -197.109375 L 78.09375 -149.84375 C 78.09375 -147.925781 78.1875 -145.910156 78.375 -143.796875 C 78.570312 -141.679688 79.34375 -139.664062 80.6875 -137.75 L 93.9375 -117 C 94.90625 -115.269531 95.914062 -114.019531 96.96875 -113.25 C 98.03125 -112.476562 99.328125 -112.09375 100.859375 -112.09375 L 103.734375 -112.09375 C 105.273438 -112.09375 106.570312 -112.476562 107.625 -113.25 C 108.6875 -114.019531 109.695312 -115.269531 110.65625 -117 L 123.90625 -137.75 C 125.257812 -139.664062 126.03125 -141.679688 126.21875 -143.796875 C 126.40625 -145.910156 126.5 -147.925781 126.5 -149.84375 L 126.5 -197.109375 C 126.5 -200.753906 127.316406 -203.394531 128.953125 -205.03125 C 130.585938 -206.664062 133.226562 -207.484375 136.875 -207.484375 L 179.8125 -207.484375 C 183.46875 -207.484375 186.109375 -206.664062 187.734375 -205.03125 C 189.367188 -203.394531 190.1875 -200.753906 190.1875 -197.109375 L 190.1875 -141.78125 C 190.1875 -132.945312 189.414062 -126.316406 187.875 -121.890625 C 186.34375 -117.472656 183.46875 -112.285156 179.25 -106.328125 L 135.4375 -46.96875 L 135.4375 -10.375 C 135.4375 -6.726562 134.617188 -4.085938 132.984375 -2.453125 C 131.359375 -0.816406 128.71875 0 125.0625 0 Z M 125.0625 0 "/></g></g></g><g fill="#00ffff" fill-opacity="1"><g transform="translate(955.471211, 502.03165)"><g><path d="M 73.484375 0 L 30.265625 0 C 26.609375 0 23.960938 -0.816406 22.328125 -2.453125 C 20.703125 -4.085938 19.890625 -6.726562 19.890625 -10.375 L 19.890625 -197.109375 C 19.890625 -200.753906 20.703125 -203.394531 22.328125 -205.03125 C 23.960938 -206.664062 26.609375 -207.484375 30.265625 -207.484375 L 60.234375 -207.484375 C 63.878906 -207.484375 67 -206.90625 69.59375 -205.75 C 72.1875 -204.601562 74.734375 -202.585938 77.234375 -199.703125 L 133.140625 -135.734375 L 133.140625 -197.109375 C 133.140625 -200.753906 133.953125 -203.394531 135.578125 -205.03125 C 137.210938 -206.664062 139.859375 -207.484375 143.515625 -207.484375 L 186.734375 -207.484375 C 190.378906 -207.484375 193.019531 -206.664062 194.65625 -205.03125 C 196.289062 -203.394531 197.109375 -200.753906 197.109375 -197.109375 L 197.109375 -10.375 C 197.109375 -6.726562 196.289062 -4.085938 194.65625 -2.453125 C 193.019531 -0.816406 190.378906 0 186.734375 0 L 143.515625 0 C 139.859375 0 137.210938 -0.816406 135.578125 -2.453125 C 133.953125 -4.085938 133.140625 -6.726562 133.140625 -10.375 L 133.140625 -45.8125 L 83.859375 -105.46875 L 83.859375 -10.375 C 83.859375 -6.726562 83.039062 -4.085938 81.40625 -2.453125 C 79.769531 -0.816406 77.128906 0 73.484375 0 Z M 73.484375 0 "/></g></g></g><g fill="#00ffff" fill-opacity="1"><g transform="translate(1172.463701, 502.03165)"><g><path d="M 125.0625 0 L 78.375 0 C 74.726562 0 72.085938 -0.816406 70.453125 -2.453125 C 68.828125 -4.085938 68.015625 -6.726562 68.015625 -10.375 L 68.015625 -47.265625 L 23.921875 -106.328125 C 19.503906 -112.285156 16.570312 -117.472656 15.125 -121.890625 C 13.6875 -126.316406 12.96875 -132.945312 12.96875 -141.78125 L 12.96875 -197.109375 C 12.96875 -200.753906 13.78125 -203.394531 15.40625 -205.03125 C 17.039062 -206.664062 19.6875 -207.484375 23.34375 -207.484375 L 67.71875 -207.484375 C 71.375 -207.484375 74.015625 -206.664062 75.640625 -205.03125 C 77.273438 -203.394531 78.09375 -200.753906 78.09375 -197.109375 L 78.09375 -149.84375 C 78.09375 -147.925781 78.1875 -145.910156 78.375 -143.796875 C 78.570312 -141.679688 79.34375 -139.664062 80.6875 -137.75 L 93.9375 -117 C 94.90625 -115.269531 95.914062 -114.019531 96.96875 -113.25 C 98.03125 -112.476562 99.328125 -112.09375 100.859375 -112.09375 L 103.734375 -112.09375 C 105.273438 -112.09375 106.570312 -112.476562 107.625 -113.25 C 108.6875 -114.019531 109.695312 -115.269531 110.65625 -117 L 123.90625 -137.75 C 125.257812 -139.664062 126.03125 -141.679688 126.21875 -143.796875 C 126.40625 -145.910156 126.5 -147.925781 126.5 -149.84375 L 126.5 -197.109375 C 126.5 -200.753906 127.316406 -203.394531 128.953125 -205.03125 C 130.585938 -206.664062 133.226562 -207.484375 136.875 -207.484375 L 179.8125 -207.484375 C 183.46875 -207.484375 186.109375 -206.664062 187.734375 -205.03125 C 189.367188 -203.394531 190.1875 -200.753906 190.1875 -197.109375 L 190.1875 -141.78125 C 190.1875 -132.945312 189.414062 -126.316406 187.875 -121.890625 C 186.34375 -117.472656 183.46875 -112.285156 179.25 -106.328125 L 135.4375 -46.96875 L 135.4375 -10.375 C 135.4375 -6.726562 134.617188 -4.085938 132.984375 -2.453125 C 131.359375 -0.816406 128.71875 0 125.0625 0 Z M 125.0625 0 "/></g></g></g><g fill="#000000" fill-opacity="1"><g transform="translate(947.963066, 509.033105)"><g><path d="M 73.484375 0 L 30.265625 0 C 26.609375 0 23.960938 -0.816406 22.328125 -2.453125 C 20.703125 -4.085938 19.890625 -6.726562 19.890625 -10.375 L 19.890625 -197.109375 C 19.890625 -200.753906 20.703125 -203.394531 22.328125 -205.03125 C 23.960938 -206.664062 26.609375 -207.484375 30.265625 -207.484375 L 60.234375 -207.484375 C 63.878906 -207.484375 67 -206.90625 69.59375 -205.75 C 72.1875 -204.601562 74.734375 -202.585938 77.234375 -199.703125 L 133.140625 -135.734375 L 133.140625 -197.109375 C 133.140625 -200.753906 133.953125 -203.394531 135.578125 -205.03125 C 137.210938 -206.664062 139.859375 -207.484375 143.515625 -207.484375 L 186.734375 -207.484375 C 190.378906 -207.484375 193.019531 -206.664062 194.65625 -205.03125 C 196.289062 -203.394531 197.109375 -200.753906 197.109375 -197.109375 L 197.109375 -10.375 C 197.109375 -6.726562 196.289062 -4.085938 194.65625 -2.453125 C 193.019531 -0.816406 190.378906 0 186.734375 0 L 143.515625 0 C 139.859375 0 137.210938 -0.816406 135.578125 -2.453125 C 133.953125 -4.085938 133.140625 -6.726562 133.140625 -10.375 L 133.140625 -45.8125 L 83.859375 -105.46875 L 83.859375 -10.375 C 83.859375 -6.726562 83.039062 -4.085938 81.40625 -2.453125 C 79.769531 -0.816406 77.128906 0 73.484375 0 Z M 73.484375 0 "/></g></g></g><g fill="#000000" fill-opacity="1"><g transform="translate(1164.955556, 509.033105)"><g><path d="M 125.0625 0 L 78.375 0 C 74.726562 0 72.085938 -0.816406 70.453125 -2.453125 C 68.828125 -4.085938 68.015625 -6.726562 68.015625 -10.375 L 68.015625 -47.265625 L 23.921875 -106.328125 C 19.503906 -112.285156 16.570312 -117.472656 15.125 -121.890625 C 13.6875 -126.316406 12.96875 -132.945312 12.96875 -141.78125 L 12.96875 -197.109375 C 12.96875 -200.753906 13.78125 -203.394531 15.40625 -205.03125 C 17.039062 -206.664062 19.6875 -207.484375 23.34375 -207.484375 L 67.71875 -207.484375 C 71.375 -207.484375 74.015625 -206.664062 75.640625 -205.03125 C 77.273438 -203.394531 78.09375 -200.753906 78.09375 -197.109375 L 78.09375 -149.84375 C 78.09375 -147.925781 78.1875 -145.910156 78.375 -143.796875 C 78.570312 -141.679688 79.34375 -139.664062 80.6875 -137.75 L 93.9375 -117 C 94.90625 -115.269531 95.914062 -114.019531 96.96875 -113.25 C 98.03125 -112.476562 99.328125 -112.09375 100.859375 -112.09375 L 103.734375 -112.09375 C 105.273438 -112.09375 106.570312 -112.476562 107.625 -113.25 C 108.6875 -114.019531 109.695312 -115.269531 110.65625 -117 L 123.90625 -137.75 C 125.257812 -139.664062 126.03125 -141.679688 126.21875 -143.796875 C 126.40625 -145.910156 126.5 -147.925781 126.5 -149.84375 L 126.5 -197.109375 C 126.5 -200.753906 127.316406 -203.394531 128.953125 -205.03125 C 130.585938 -206.664062 133.226562 -207.484375 136.875 -207.484375 L 179.8125 -207.484375 C 183.46875 -207.484375 186.109375 -206.664062 187.734375 -205.03125 C 189.367188 -203.394531 190.1875 -200.753906 190.1875 -197.109375 L 190.1875 -141.78125 C 190.1875 -132.945312 189.414062 -126.316406 187.875 -121.890625 C 186.34375 -117.472656 183.46875 -112.285156 179.25 -106.328125 L 135.4375 -46.96875 L 135.4375 -10.375 C 135.4375 -6.726562 134.617188 -4.085938 132.984375 -2.453125 C 131.359375 -0.816406 128.71875 0 125.0625 0 Z M 125.0625 0 "/></g></g></g><g clip-path="url(#bb41216a0b)"><path fill="#000000" d="M 926.3125 405.285156 C 926.3125 407.097656 926.269531 408.90625 926.179688 410.714844 C 926.089844 412.523438 925.957031 414.332031 925.78125 416.132812 C 925.601562 417.933594 925.382812 419.730469 925.117188 421.523438 C 924.851562 423.316406 924.539062 425.097656 924.1875 426.875 C 923.832031 428.652344 923.4375 430.417969 922.996094 432.171875 C 922.558594 433.929688 922.074219 435.675781 921.546875 437.40625 C 921.023438 439.140625 920.453125 440.859375 919.84375 442.566406 C 919.234375 444.269531 918.582031 445.960938 917.890625 447.632812 C 917.195312 449.304688 916.464844 450.960938 915.6875 452.597656 C 914.914062 454.234375 914.101562 455.851562 913.246094 457.449219 C 912.394531 459.046875 911.5 460.621094 910.570312 462.175781 C 909.640625 463.726562 908.671875 465.257812 907.664062 466.761719 C 906.660156 468.269531 905.617188 469.75 904.539062 471.203125 C 903.457031 472.65625 902.34375 474.085938 901.195312 475.484375 C 900.046875 476.882812 898.863281 478.253906 897.648438 479.597656 C 896.433594 480.9375 895.183594 482.25 893.902344 483.53125 C 892.621094 484.8125 891.3125 486.058594 889.96875 487.277344 C 888.628906 488.492188 887.257812 489.675781 885.855469 490.824219 C 884.457031 491.972656 883.03125 493.085938 881.574219 494.164062 C 880.121094 495.242188 878.640625 496.285156 877.136719 497.292969 C 875.628906 498.296875 874.101562 499.265625 872.546875 500.199219 C 870.992188 501.128906 869.417969 502.019531 867.820312 502.875 C 866.222656 503.726562 864.605469 504.542969 862.96875 505.316406 C 861.332031 506.089844 859.679688 506.824219 858.003906 507.515625 C 856.332031 508.210938 854.644531 508.863281 852.9375 509.472656 C 851.234375 510.082031 849.511719 510.648438 847.78125 511.175781 C 846.046875 511.703125 844.304688 512.183594 842.546875 512.625 C 840.789062 513.0625 839.023438 513.460938 837.246094 513.8125 C 835.472656 514.167969 833.6875 514.476562 831.894531 514.742188 C 830.105469 515.007812 828.308594 515.230469 826.503906 515.40625 C 824.703125 515.585938 822.898438 515.71875 821.089844 515.808594 C 819.28125 515.894531 817.472656 515.941406 815.660156 515.941406 C 813.847656 515.941406 812.039062 515.894531 810.230469 515.808594 C 808.421875 515.71875 806.617188 515.585938 804.8125 515.40625 C 803.011719 515.230469 801.214844 515.007812 799.421875 514.742188 C 797.632812 514.476562 795.847656 514.167969 794.074219 513.8125 C 792.296875 513.460938 790.53125 513.0625 788.773438 512.625 C 787.015625 512.183594 785.273438 511.703125 783.539062 511.175781 C 781.804688 510.648438 780.085938 510.082031 778.382812 509.472656 C 776.675781 508.863281 774.988281 508.210938 773.316406 507.515625 C 771.640625 506.824219 769.988281 506.089844 768.347656 505.316406 C 766.710938 504.542969 765.09375 503.726562 763.5 502.875 C 761.902344 502.019531 760.324219 501.128906 758.773438 500.199219 C 757.21875 499.265625 755.691406 498.296875 754.183594 497.292969 C 752.679688 496.285156 751.199219 495.242188 749.742188 494.164062 C 748.289062 493.085938 746.863281 491.972656 745.460938 490.824219 C 744.0625 489.675781 742.691406 488.492188 741.351562 487.277344 C 740.007812 486.058594 738.695312 484.8125 737.417969 483.53125 C 736.136719 482.25 734.886719 480.9375 733.671875 479.597656 C 732.453125 478.253906 731.273438 476.882812 730.125 475.484375 C 728.976562 474.085938 727.859375 472.65625 726.78125 471.203125 C 725.703125 469.75 724.660156 468.269531 723.65625 466.761719 C 722.648438 465.257812 721.679688 463.726562 720.75 462.175781 C 719.820312 460.621094 718.925781 459.046875 718.074219 457.449219 C 717.21875 455.851562 716.40625 454.234375 715.628906 452.597656 C 714.855469 450.960938 714.121094 449.304688 713.429688 447.632812 C 712.738281 445.960938 712.085938 444.269531 711.476562 442.566406 C 710.863281 440.859375 710.296875 439.140625 709.769531 437.40625 C 709.246094 435.675781 708.761719 433.929688 708.324219 432.171875 C 707.882812 430.417969 707.484375 428.652344 707.132812 426.875 C 706.78125 425.097656 706.46875 423.316406 706.203125 421.523438 C 705.9375 419.730469 705.71875 417.933594 705.539062 416.132812 C 705.363281 414.332031 705.230469 412.523438 705.140625 410.714844 C 705.050781 408.90625 705.007812 407.097656 705.007812 405.285156 C 705.007812 403.476562 705.050781 401.667969 705.140625 399.859375 C 705.230469 398.046875 705.363281 396.242188 705.539062 394.441406 C 705.71875 392.640625 705.9375 390.84375 706.203125 389.050781 C 706.46875 387.257812 706.78125 385.476562 707.132812 383.699219 C 707.484375 381.921875 707.882812 380.15625 708.324219 378.402344 C 708.761719 376.644531 709.246094 374.898438 709.769531 373.167969 C 710.296875 371.433594 710.863281 369.714844 711.476562 368.007812 C 712.085938 366.304688 712.738281 364.613281 713.429688 362.941406 C 714.121094 361.269531 714.855469 359.613281 715.628906 357.976562 C 716.40625 356.339844 717.21875 354.722656 718.074219 353.125 C 718.925781 351.527344 719.820312 349.953125 720.75 348.398438 C 721.679688 346.847656 722.648438 345.316406 723.65625 343.8125 C 724.660156 342.304688 725.703125 340.824219 726.78125 339.371094 C 727.859375 337.917969 728.976562 336.488281 730.125 335.089844 C 731.273438 333.691406 732.453125 332.320312 733.671875 330.976562 C 734.886719 329.636719 736.136719 328.324219 737.417969 327.042969 C 738.695312 325.761719 740.007812 324.515625 741.351562 323.296875 C 742.691406 322.082031 744.0625 320.898438 745.460938 319.75 C 746.863281 318.601562 748.289062 317.488281 749.742188 316.410156 C 751.199219 315.332031 752.679688 314.289062 754.183594 313.28125 C 755.691406 312.277344 757.21875 311.308594 758.773438 310.375 C 760.324219 309.445312 761.902344 308.554688 763.5 307.699219 C 765.09375 306.847656 766.710938 306.03125 768.347656 305.257812 C 769.988281 304.484375 771.640625 303.75 773.316406 303.058594 C 774.988281 302.363281 776.675781 301.710938 778.382812 301.101562 C 780.085938 300.492188 781.804688 299.925781 783.539062 299.398438 C 785.273438 298.871094 787.015625 298.390625 788.773438 297.949219 C 790.53125 297.511719 792.296875 297.113281 794.074219 296.761719 C 795.847656 296.40625 797.632812 296.097656 799.421875 295.832031 C 801.214844 295.566406 803.011719 295.34375 804.8125 295.167969 C 806.617188 294.988281 808.421875 294.855469 810.230469 294.765625 C 812.039062 294.679688 813.847656 294.632812 815.660156 294.632812 C 817.472656 294.632812 819.28125 294.679688 821.089844 294.765625 C 822.898438 294.855469 824.703125 294.988281 826.503906 295.167969 C 828.308594 295.34375 830.105469 295.566406 831.894531 295.832031 C 833.6875 296.097656 835.472656 296.40625 837.246094 296.761719 C 839.023438 297.113281 840.789062 297.511719 842.546875 297.949219 C 844.304688 298.390625 846.046875 298.871094 847.78125 299.398438 C 849.511719 299.925781 851.234375 300.492188 852.9375 301.101562 C 854.644531 301.710938 856.332031 302.363281 858.003906 303.058594 C 859.679688 303.75 861.332031 304.484375 862.96875 305.257812 C 864.605469 306.03125 866.222656 306.847656 867.820312 307.699219 C 869.417969 308.554688 870.992188 309.445312 872.546875 310.375 C 874.101562 311.308594 875.628906 312.277344 877.136719 313.28125 C 878.640625 314.289062 880.121094 315.332031 881.574219 316.410156 C 883.03125 317.488281 884.457031 318.601562 885.855469 319.75 C 887.257812 320.898438 888.628906 322.082031 889.96875 323.296875 C 891.3125 324.515625 892.621094 325.761719 893.902344 327.042969 C 895.183594 328.324219 896.433594 329.636719 897.648438 330.976562 C 898.863281 332.320312 900.046875 333.691406 901.195312 335.089844 C 902.34375 336.488281 903.457031 337.917969 904.539062 339.371094 C 905.617188 340.824219 906.660156 342.304688 907.664062 343.8125 C 908.671875 345.316406 909.640625 346.847656 910.570312 348.398438 C 911.5 349.953125 912.394531 351.527344 913.246094 353.125 C 914.101562 354.722656 914.914062 356.339844 915.6875 357.976562 C 916.464844 359.613281 917.195312 361.269531 917.890625 362.941406 C 918.582031 364.613281 919.234375 366.304688 919.84375 368.007812 C 920.453125 369.714844 921.023438 371.433594 921.546875 373.167969 C 922.074219 374.898438 922.558594 376.644531 922.996094 378.402344 C 923.4375 380.15625 923.832031 381.921875 924.1875 383.699219 C 924.539062 385.476562 924.851562 387.257812 925.117188 389.050781 C 925.382812 390.84375 925.601562 392.640625 925.78125 394.441406 C 925.957031 396.242188 926.089844 398.046875 926.179688 399.859375 C 926.269531 401.667969 926.3125 403.476562 926.3125 405.285156 Z M 926.3125 405.285156 " fill-opacity="1" fill-rule="nonzero"/></g><path fill="#000000" d="M 837.199219 441.285156 L 834.472656 450.066406 C 838.972656 450.359375 842.585938 454.121094 842.585938 458.769531 L 842.585938 463.5625 C 842.585938 465.703125 840.816406 467.472656 838.675781 467.472656 L 792.644531 467.472656 C 790.503906 467.472656 788.734375 465.703125 788.734375 463.5625 L 788.734375 458.769531 C 788.734375 454.121094 792.347656 450.359375 796.847656 450.066406 L 794.121094 441.285156 L 762.105469 441.285156 C 755.539062 441.285156 750.226562 435.976562 750.226562 429.484375 L 750.226562 354.902344 C 750.226562 348.410156 755.539062 343.101562 762.105469 343.101562 L 869.214844 343.101562 C 875.78125 343.101562 881.09375 348.410156 881.09375 354.902344 L 881.09375 429.484375 C 881.09375 435.976562 875.78125 441.285156 869.214844 441.285156 Z M 811.75 450.066406 L 811.75 441.285156 L 802.382812 441.285156 L 805.109375 450.066406 Z M 819.570312 441.285156 L 819.570312 450.066406 L 826.207031 450.066406 L 828.9375 441.285156 Z M 796.628906 459.65625 L 834.691406 459.65625 L 834.691406 458.769531 C 834.691406 458.253906 834.324219 457.882812 833.878906 457.882812 L 797.4375 457.882812 C 796.996094 457.882812 796.628906 458.253906 796.628906 458.769531 Z M 873.199219 424.761719 L 758.121094 424.761719 L 758.121094 429.484375 C 758.121094 431.621094 759.890625 433.394531 762.105469 433.394531 L 869.214844 433.394531 C 871.429688 433.394531 873.199219 431.621094 873.199219 429.484375 Z M 799.875 433.023438 L 795.964844 433.023438 C 793.75 433.023438 791.980469 431.253906 791.980469 429.113281 C 791.980469 426.902344 793.75 425.128906 795.964844 425.128906 L 799.875 425.128906 C 802.085938 425.128906 803.855469 426.902344 803.855469 429.113281 C 803.855469 431.253906 802.085938 433.023438 799.875 433.023438 Z M 811.75 433.023438 L 807.765625 433.023438 C 805.628906 433.023438 803.855469 431.253906 803.855469 429.113281 C 803.855469 426.902344 805.628906 425.128906 807.765625 425.128906 L 811.75 425.128906 C 813.890625 425.128906 815.660156 426.902344 815.660156 429.113281 C 815.660156 431.253906 813.890625 433.023438 811.75 433.023438 Z M 823.554688 433.023438 L 819.570312 433.023438 C 817.429688 433.023438 815.660156 431.253906 815.660156 429.113281 C 815.660156 426.902344 817.429688 425.128906 819.570312 425.128906 L 823.554688 425.128906 C 825.691406 425.128906 827.460938 426.902344 827.460938 429.113281 C 827.460938 431.253906 825.691406 433.023438 823.554688 433.023438 Z M 835.355469 433.023438 L 831.445312 433.023438 C 829.234375 433.023438 827.460938 431.253906 827.460938 429.113281 C 827.460938 426.902344 829.234375 425.128906 831.445312 425.128906 L 835.355469 425.128906 C 837.570312 425.128906 839.339844 426.902344 839.339844 429.113281 C 839.339844 431.253906 837.570312 433.023438 835.355469 433.023438 Z M 758.121094 416.941406 L 873.199219 416.941406 L 873.199219 354.902344 C 873.199219 352.691406 871.429688 350.917969 869.214844 350.917969 L 762.105469 350.917969 C 759.890625 350.917969 758.121094 352.691406 758.121094 354.902344 Z M 837.644531 379.984375 C 837.347656 380.058594 836.980469 380.132812 836.683594 380.132812 C 835.726562 380.132812 834.839844 379.761719 834.175781 379.171875 L 827.316406 373.492188 C 826.429688 372.753906 825.914062 371.648438 825.914062 370.46875 C 825.914062 369.289062 826.429688 368.179688 827.316406 367.445312 L 834.175781 361.761719 C 835.796875 360.363281 838.308594 360.582031 839.707031 362.28125 C 841.035156 363.976562 840.816406 366.410156 839.191406 367.8125 L 835.945312 370.46875 L 839.191406 373.125 C 839.265625 373.199219 839.339844 373.269531 839.414062 373.34375 L 843.542969 357.855469 C 844.132812 355.789062 846.273438 354.535156 848.414062 355.050781 C 850.480469 355.640625 851.734375 357.78125 851.144531 359.84375 L 850.847656 360.953125 C 852.027344 360.65625 853.355469 360.953125 854.386719 361.761719 L 861.175781 367.445312 C 862.132812 368.179688 862.652344 369.289062 862.652344 370.46875 C 862.652344 371.648438 862.132812 372.753906 861.175781 373.492188 L 854.386719 379.171875 C 853.652344 379.761719 852.765625 380.132812 851.804688 380.132812 C 850.699219 380.132812 849.59375 379.617188 848.78125 378.730469 C 847.453125 377.035156 847.675781 374.527344 849.296875 373.125 L 852.542969 370.46875 L 849.296875 367.8125 C 849.222656 367.738281 849.152344 367.664062 849.078125 367.589844 L 844.945312 383.15625 C 844.726562 384.042969 844.132812 384.78125 843.46875 385.296875 L 865.894531 385.296875 C 868.035156 385.296875 869.804688 387.066406 869.804688 389.207031 C 869.804688 391.417969 868.035156 393.1875 865.894531 393.1875 L 822.59375 393.1875 C 820.453125 393.1875 818.683594 391.417969 818.683594 389.207031 C 818.683594 387.066406 820.453125 385.296875 822.59375 385.296875 L 838.824219 385.296875 C 837.570312 384.335938 836.90625 382.714844 837.347656 381.089844 Z M 865.894531 412.960938 L 822.59375 412.960938 C 820.453125 412.960938 818.683594 411.1875 818.683594 409.050781 C 818.683594 406.835938 820.453125 405.066406 822.59375 405.066406 L 865.894531 405.066406 C 868.035156 405.066406 869.804688 406.835938 869.804688 409.050781 C 869.804688 411.1875 868.035156 412.960938 865.894531 412.960938 Z M 865.894531 403.074219 L 822.59375 403.074219 C 820.453125 403.074219 818.683594 401.304688 818.683594 399.089844 C 818.683594 396.949219 820.453125 395.179688 822.59375 395.179688 L 865.894531 395.179688 C 868.035156 395.179688 869.804688 396.949219 869.804688 399.089844 C 869.804688 401.304688 868.035156 403.074219 865.894531 403.074219 Z M 781.726562 386.179688 L 769.332031 379.097656 L 769.332031 393.335938 L 781.726562 400.492188 Z M 773.316406 372.238281 L 785.636719 379.394531 L 797.957031 372.238281 L 785.636719 365.15625 Z M 801.9375 379.097656 L 789.546875 386.179688 L 789.546875 400.492188 L 801.9375 393.335938 Z M 801.9375 379.097656 " fill-opacity="1" fill-rule="evenodd"/><path fill="#000000" d="M 869.214844 438.851562 L 835.355469 438.851562 L 831.152344 452.5 L 833.878906 452.5 C 837.273438 452.5 840.152344 455.300781 840.152344 458.769531 L 840.152344 463.5625 C 840.152344 464.375 839.488281 465.039062 838.675781 465.039062 L 792.644531 465.039062 C 791.832031 465.039062 791.167969 464.375 791.167969 463.5625 L 791.167969 458.769531 C 791.167969 455.300781 794.046875 452.5 797.4375 452.5 L 800.167969 452.5 L 795.964844 438.851562 L 762.105469 438.851562 C 756.941406 438.851562 752.734375 434.648438 752.734375 429.484375 L 752.734375 354.902344 C 752.734375 349.738281 756.941406 345.535156 762.105469 345.535156 L 869.214844 345.535156 C 874.378906 345.535156 878.585938 349.738281 878.585938 354.902344 L 878.585938 429.484375 C 878.585938 434.648438 874.378906 438.851562 869.214844 438.851562 Z M 814.183594 452.5 L 814.183594 438.851562 L 798.988281 438.851562 L 803.265625 452.5 Z M 817.136719 438.851562 L 817.136719 452.5 L 828.054688 452.5 L 832.332031 438.851562 Z M 829.160156 455.449219 L 797.4375 455.449219 C 795.667969 455.449219 794.121094 456.925781 794.121094 458.769531 L 794.121094 462.089844 L 837.199219 462.089844 L 837.199219 458.769531 C 837.199219 456.925781 835.652344 455.449219 833.878906 455.449219 Z M 835.355469 430.589844 L 831.445312 430.589844 C 830.636719 430.589844 829.972656 429.925781 829.972656 429.113281 C 829.972656 428.304688 830.636719 427.640625 831.445312 427.640625 L 835.355469 427.640625 C 836.167969 427.640625 836.832031 428.304688 836.832031 429.113281 C 836.832031 429.925781 836.167969 430.589844 835.355469 430.589844 Z M 823.554688 430.589844 L 819.570312 430.589844 C 818.757812 430.589844 818.09375 429.925781 818.09375 429.113281 C 818.09375 428.304688 818.757812 427.640625 819.570312 427.640625 L 823.554688 427.640625 C 824.363281 427.640625 825.027344 428.304688 825.027344 429.113281 C 825.027344 429.925781 824.363281 430.589844 823.554688 430.589844 Z M 811.75 430.589844 L 807.765625 430.589844 C 806.953125 430.589844 806.292969 429.925781 806.292969 429.113281 C 806.292969 428.304688 806.953125 427.640625 807.765625 427.640625 L 811.75 427.640625 C 812.5625 427.640625 813.226562 428.304688 813.226562 429.113281 C 813.226562 429.925781 812.5625 430.589844 811.75 430.589844 Z M 799.875 430.589844 L 795.964844 430.589844 C 795.152344 430.589844 794.488281 429.925781 794.488281 429.113281 C 794.488281 428.304688 795.152344 427.640625 795.964844 427.640625 L 799.875 427.640625 C 800.683594 427.640625 801.347656 428.304688 801.347656 429.113281 C 801.347656 429.925781 800.683594 430.589844 799.875 430.589844 Z M 875.632812 422.328125 L 755.6875 422.328125 L 755.6875 429.484375 C 755.6875 433.023438 758.5625 435.902344 762.105469 435.902344 L 869.214844 435.902344 C 872.757812 435.902344 875.632812 433.023438 875.632812 429.484375 Z M 755.6875 419.375 L 875.632812 419.375 L 875.632812 354.902344 C 875.632812 351.363281 872.757812 348.484375 869.214844 348.484375 L 762.105469 348.484375 C 758.5625 348.484375 755.6875 351.363281 755.6875 354.902344 Z M 865.894531 410.523438 L 822.59375 410.523438 C 821.78125 410.523438 821.117188 409.859375 821.117188 409.050781 C 821.117188 408.164062 821.78125 407.574219 822.59375 407.574219 L 865.894531 407.574219 C 866.707031 407.574219 867.371094 408.164062 867.371094 409.050781 C 867.371094 409.859375 866.707031 410.523438 865.894531 410.523438 Z M 865.894531 400.566406 L 822.59375 400.566406 C 821.78125 400.566406 821.117188 399.902344 821.117188 399.089844 C 821.117188 398.277344 821.78125 397.613281 822.59375 397.613281 L 865.894531 397.613281 C 866.707031 397.613281 867.371094 398.277344 867.371094 399.089844 C 867.371094 399.902344 866.707031 400.566406 865.894531 400.566406 Z M 865.894531 390.679688 L 822.59375 390.679688 C 821.78125 390.679688 821.117188 390.015625 821.117188 389.207031 C 821.117188 388.394531 821.78125 387.730469 822.59375 387.730469 L 865.894531 387.730469 C 866.707031 387.730469 867.371094 388.394531 867.371094 389.207031 C 867.371094 390.015625 866.707031 390.679688 865.894531 390.679688 Z M 841.109375 383.597656 C 841.035156 383.597656 840.890625 383.597656 840.742188 383.523438 C 839.929688 383.304688 839.488281 382.492188 839.707031 381.753906 L 845.90625 358.445312 C 846.125 357.707031 846.9375 357.261719 847.75 357.410156 C 848.5625 357.632812 849.003906 358.445312 848.78125 359.253906 L 842.585938 382.492188 C 842.363281 383.15625 841.773438 383.597656 841.109375 383.597656 Z M 851.804688 377.625 C 851.4375 377.625 850.996094 377.476562 850.699219 377.105469 C 850.183594 376.515625 850.257812 375.558594 850.921875 375.042969 L 856.378906 370.46875 L 850.921875 365.894531 C 850.257812 365.378906 850.183594 364.492188 850.699219 363.828125 C 851.214844 363.238281 852.175781 363.164062 852.765625 363.679688 L 859.625 369.363281 C 859.996094 369.65625 860.140625 370.027344 860.140625 370.46875 C 860.140625 370.910156 859.996094 371.351562 859.625 371.648438 L 852.765625 377.328125 C 852.542969 377.550781 852.175781 377.625 851.804688 377.625 Z M 836.683594 377.625 C 836.316406 377.625 836.019531 377.550781 835.726562 377.328125 L 828.863281 371.648438 C 828.570312 371.351562 828.347656 370.910156 828.347656 370.46875 C 828.347656 370.027344 828.570312 369.65625 828.863281 369.363281 L 835.726562 363.679688 C 836.316406 363.164062 837.273438 363.238281 837.789062 363.828125 C 838.308594 364.492188 838.234375 365.378906 837.570312 365.894531 L 832.109375 370.46875 L 837.570312 375.042969 C 838.234375 375.558594 838.308594 376.515625 837.789062 377.105469 C 837.496094 377.476562 837.054688 377.625 836.683594 377.625 Z M 784.160156 384.78125 L 766.898438 374.820312 L 766.898438 394.738281 L 784.160156 404.695312 Z M 764.390625 371.207031 C 764.464844 371.132812 764.613281 371.058594 764.757812 370.984375 L 784.898438 359.328125 C 785.339844 359.035156 785.929688 359.035156 786.375 359.328125 L 806.511719 370.984375 C 806.808594 371.058594 806.953125 371.28125 807.101562 371.5 C 807.25 371.796875 807.324219 372.015625 807.324219 372.3125 L 807.324219 395.625 C 807.324219 396.140625 807.027344 396.65625 806.585938 396.878906 L 786.375 408.53125 C 786.375 408.605469 786.300781 408.605469 786.226562 408.605469 L 786.152344 408.679688 C 786.152344 408.679688 786.152344 408.679688 786.078125 408.679688 L 786.003906 408.679688 L 785.929688 408.753906 L 785.339844 408.753906 L 785.339844 408.679688 L 785.121094 408.679688 L 785.046875 408.605469 L 784.898438 408.605469 L 784.898438 408.53125 L 764.6875 396.878906 C 764.242188 396.65625 763.949219 396.140625 763.949219 395.625 L 763.949219 372.238281 C 763.949219 372.164062 763.949219 372.089844 763.949219 371.945312 L 764.023438 371.945312 L 764.023438 371.871094 C 764.023438 371.722656 764.167969 371.5 764.242188 371.351562 L 764.316406 371.351562 L 764.316406 371.28125 L 764.390625 371.28125 Z M 768.375 372.238281 L 785.636719 382.199219 L 802.898438 372.238281 L 785.636719 362.28125 Z M 804.375 374.820312 L 787.109375 384.78125 L 787.109375 404.695312 L 804.375 394.738281 Z M 804.375 374.820312 " fill-opacity="1" fill-rule="evenodd"/><path fill="#ff3131" d="M 837.199219 458.769531 C 837.199219 456.925781 835.652344 455.449219 833.878906 455.449219 L 797.4375 455.449219 C 795.667969 455.449219 794.121094 456.925781 794.121094 458.769531 L 794.121094 462.089844 L 837.199219 462.089844 Z M 837.199219 458.769531 " fill-opacity="1" fill-rule="evenodd"/><path fill="#e7ecf3" d="M 828.054688 452.5 L 832.332031 438.851562 L 817.136719 438.851562 L 817.136719 452.5 Z M 828.054688 452.5 " fill-opacity="1" fill-rule="evenodd"/><path fill="#e7ecf3" d="M 814.183594 452.5 L 814.183594 438.851562 L 798.988281 438.851562 L 803.265625 452.5 Z M 814.183594 452.5 " fill-opacity="1" fill-rule="evenodd"/><path fill="#ff3131" d="M 762.105469 435.902344 L 869.214844 435.902344 C 872.757812 435.902344 875.632812 433.023438 875.632812 429.484375 L 875.632812 422.328125 L 755.6875 422.328125 L 755.6875 429.484375 C 755.6875 433.023438 758.5625 435.902344 762.105469 435.902344 Z M 795.964844 430.589844 C 793.972656 430.589844 793.972656 427.640625 795.964844 427.640625 L 799.875 427.640625 C 801.863281 427.640625 801.863281 430.589844 799.875 430.589844 Z M 807.765625 430.589844 C 805.847656 430.589844 805.847656 427.640625 807.765625 427.640625 L 811.75 427.640625 C 813.667969 427.640625 813.667969 430.589844 811.75 430.589844 Z M 819.570312 430.589844 C 817.652344 430.589844 817.652344 427.640625 819.570312 427.640625 L 823.554688 427.640625 C 825.472656 427.640625 825.472656 430.589844 823.554688 430.589844 Z M 831.445312 430.589844 C 829.453125 430.589844 829.453125 427.640625 831.445312 427.640625 L 835.355469 427.640625 C 837.347656 427.640625 837.347656 430.589844 835.355469 430.589844 Z M 831.445312 430.589844 " fill-opacity="1" fill-rule="evenodd"/><path fill="#e7ecf3" d="M 755.6875 419.375 L 875.632812 419.375 L 875.632812 354.902344 C 875.632812 351.363281 872.757812 348.484375 869.214844 348.484375 L 762.105469 348.484375 C 758.5625 348.484375 755.6875 351.363281 755.6875 354.902344 Z M 865.894531 410.523438 L 822.59375 410.523438 C 820.675781 410.523438 820.675781 407.574219 822.59375 407.574219 L 865.894531 407.574219 C 867.8125 407.574219 867.8125 410.523438 865.894531 410.523438 Z M 865.894531 400.566406 L 822.59375 400.566406 C 820.675781 400.566406 820.675781 397.613281 822.59375 397.613281 L 865.894531 397.613281 C 867.8125 397.613281 867.8125 400.566406 865.894531 400.566406 Z M 865.894531 390.679688 L 822.59375 390.679688 C 820.675781 390.679688 820.675781 387.730469 822.59375 387.730469 L 865.894531 387.730469 C 867.8125 387.730469 867.8125 390.679688 865.894531 390.679688 Z M 841.109375 383.597656 C 840.152344 383.597656 839.488281 382.640625 839.707031 381.753906 L 845.90625 358.445312 C 846.421875 356.601562 849.296875 357.335938 848.78125 359.253906 L 842.585938 382.492188 C 842.363281 383.15625 841.773438 383.597656 841.109375 383.597656 Z M 851.804688 377.625 C 850.480469 377.625 849.816406 375.925781 850.921875 375.042969 L 856.378906 370.46875 L 850.921875 365.894531 C 849.445312 364.714844 851.289062 362.425781 852.765625 363.679688 L 859.625 369.363281 C 860.363281 369.953125 860.363281 371.058594 859.625 371.648438 L 852.765625 377.328125 C 852.542969 377.550781 852.175781 377.625 851.804688 377.625 Z M 836.683594 377.625 C 836.316406 377.625 836.019531 377.550781 835.726562 377.328125 L 828.863281 371.648438 C 828.125 371.058594 828.125 369.953125 828.863281 369.363281 L 835.726562 363.679688 C 837.199219 362.425781 839.117188 364.714844 837.570312 365.894531 L 832.109375 370.46875 L 837.570312 375.042969 C 838.675781 375.925781 838.011719 377.625 836.683594 377.625 Z M 806.585938 396.878906 L 786.003906 408.679688 L 785.929688 408.753906 L 785.339844 408.753906 L 784.898438 408.53125 L 764.6875 396.878906 C 764.242188 396.65625 763.949219 396.140625 763.949219 395.625 L 764.023438 371.871094 L 764.390625 371.207031 L 784.898438 359.328125 C 785.339844 359.035156 785.929688 359.035156 786.375 359.328125 L 806.511719 370.984375 C 807.027344 371.28125 807.324219 371.722656 807.324219 372.3125 L 807.324219 395.625 C 807.324219 396.140625 807.027344 396.65625 806.585938 396.878906 Z M 806.585938 396.878906 " fill-opacity="1" fill-rule="evenodd"/><path fill="#ff3131" d="M 787.109375 404.695312 L 804.375 394.738281 L 804.375 374.820312 L 787.109375 384.78125 Z M 787.109375 404.695312 " fill-opacity="1" fill-rule="evenodd"/><path fill="#ff3131" d="M 784.160156 404.695312 L 784.160156 384.78125 L 766.898438 374.820312 L 766.898438 394.738281 Z M 784.160156 404.695312 " fill-opacity="1" fill-rule="evenodd"/><path fill="#ff3131" d="M 768.375 372.238281 L 785.636719 382.199219 L 802.898438 372.238281 L 785.636719 362.28125 Z M 768.375 372.238281 " fill-opacity="1" fill-rule="evenodd"/></svg>