<svg xmlns="http://www.w3.org/2000/svg" xmlns:xlink="http://www.w3.org/1999/xlink" width="1920" zoomAndPan="magnify" viewBox="0 0 1440 809.999993" height="1080" preserveAspectRatio="xMidYMid meet" version="1.0"><defs><g/></defs><g fill="#ff0000" fill-opacity="1"><g transform="translate(66.877817, 519.391537)"><g><path d="M 98.296875 -151.921875 L 84.296875 -106.640625 L 131.078125 -106.640625 L 117.078125 -151.921875 C 116.273438 -153.710938 115.425781 -155.003906 114.53125 -155.796875 C 113.644531 -156.585938 112.601562 -156.984375 111.40625 -156.984375 L 103.96875 -156.984375 C 102.769531 -156.984375 101.722656 -156.585938 100.828125 -155.796875 C 99.941406 -155.003906 99.097656 -153.710938 98.296875 -151.921875 Z M 81.328125 -10.71875 C 81.328125 -6.945312 80.484375 -4.21875 78.796875 -2.53125 C 77.109375 -0.84375 74.375 0 70.59375 0 L 26.8125 0 C 23.039062 0 20.3125 -0.84375 18.625 -2.53125 C 16.9375 -4.21875 16.09375 -6.945312 16.09375 -10.71875 L 16.09375 -89.375 C 16.09375 -95.320312 17.035156 -102.171875 18.921875 -109.921875 C 20.804688 -117.671875 23.734375 -126.707031 27.703125 -137.03125 L 53.625 -204.65625 C 54.8125 -208.03125 56.644531 -210.507812 59.125 -212.09375 C 61.613281 -213.6875 64.84375 -214.484375 68.8125 -214.484375 L 148.953125 -214.484375 C 152.722656 -214.484375 155.847656 -213.6875 158.328125 -212.09375 C 160.804688 -210.507812 162.644531 -208.03125 163.84375 -204.65625 L 189.75 -137.03125 C 193.726562 -126.707031 196.660156 -117.671875 198.546875 -109.921875 C 200.429688 -102.171875 201.375 -95.320312 201.375 -89.375 L 201.375 -10.71875 C 201.375 -6.945312 200.53125 -4.21875 198.84375 -2.53125 C 197.15625 -0.84375 194.425781 0 190.65625 0 L 145.671875 0 C 141.691406 0 138.757812 -0.84375 136.875 -2.53125 C 134.988281 -4.21875 134.046875 -6.945312 134.046875 -10.71875 L 134.046875 -52.421875 L 81.328125 -52.421875 Z M 81.328125 -10.71875 "/></g></g></g><g fill="#ff0000" fill-opacity="1"><g transform="translate(284.336068, 519.391537)"><g><path d="M 75.96875 0 L 31.28125 0 C 27.507812 0 24.773438 -0.84375 23.078125 -2.53125 C 21.390625 -4.21875 20.546875 -6.945312 20.546875 -10.71875 L 20.546875 -203.75 C 20.546875 -207.53125 21.390625 -210.265625 23.078125 -211.953125 C 24.773438 -213.640625 27.507812 -214.484375 31.28125 -214.484375 L 62.265625 -214.484375 C 66.035156 -214.484375 69.257812 -213.882812 71.9375 -212.6875 C 74.625 -211.5 77.253906 -209.414062 79.828125 -206.4375 L 137.625 -140.3125 L 137.625 -203.75 C 137.625 -207.53125 138.46875 -210.265625 140.15625 -211.953125 C 141.84375 -213.640625 144.570312 -214.484375 148.34375 -214.484375 L 193.03125 -214.484375 C 196.800781 -214.484375 199.53125 -213.640625 201.21875 -211.953125 C 202.90625 -210.265625 203.75 -207.53125 203.75 -203.75 L 203.75 -10.71875 C 203.75 -6.945312 202.90625 -4.21875 201.21875 -2.53125 C 199.53125 -0.84375 196.800781 0 193.03125 0 L 148.34375 0 C 144.570312 0 141.84375 -0.84375 140.15625 -2.53125 C 138.46875 -4.21875 137.625 -6.945312 137.625 -10.71875 L 137.625 -47.359375 L 86.6875 -109.03125 L 86.6875 -10.71875 C 86.6875 -6.945312 85.84375 -4.21875 84.15625 -2.53125 C 82.46875 -0.84375 79.738281 0 75.96875 0 Z M 75.96875 0 "/></g></g></g><g fill="#ff0000" fill-opacity="1"><g transform="translate(508.645762, 519.391537)"><g><path d="M 121.84375 0 L 73.578125 0 C 69.804688 0 67.078125 -0.84375 65.390625 -2.53125 C 63.703125 -4.21875 62.859375 -6.945312 62.859375 -10.71875 L 62.859375 -156.984375 L 19.0625 -156.984375 C 15.289062 -156.984375 12.5625 -157.828125 10.875 -159.515625 C 9.1875 -161.203125 8.34375 -163.9375 8.34375 -167.71875 L 8.34375 -203.75 C 8.34375 -207.53125 9.1875 -210.265625 10.875 -211.953125 C 12.5625 -213.640625 15.289062 -214.484375 19.0625 -214.484375 L 176.34375 -214.484375 C 180.125 -214.484375 182.859375 -213.640625 184.546875 -211.953125 C 186.234375 -210.265625 187.078125 -207.53125 187.078125 -203.75 L 187.078125 -167.71875 C 187.078125 -163.9375 186.234375 -161.203125 184.546875 -159.515625 C 182.859375 -157.828125 180.125 -156.984375 176.34375 -156.984375 L 132.5625 -156.984375 L 132.5625 -10.71875 C 132.5625 -6.945312 131.71875 -4.21875 130.03125 -2.53125 C 128.34375 -0.84375 125.613281 0 121.84375 0 Z M 121.84375 0 "/></g></g></g><g fill="#ff0000" fill-opacity="1"><g transform="translate(704.060265, 519.391537)"><g><path d="M 202.265625 -56.296875 C 202.265625 -47.160156 200.921875 -38.867188 198.234375 -31.421875 C 195.554688 -23.972656 190.789062 -17.617188 183.9375 -12.359375 C 177.09375 -7.097656 167.660156 -2.976562 155.640625 0 C 143.628906 2.976562 128.390625 4.46875 109.921875 4.46875 C 91.453125 4.46875 76.160156 2.976562 64.046875 0 C 51.929688 -2.976562 42.445312 -7.097656 35.59375 -12.359375 C 28.75 -17.617188 23.984375 -23.972656 21.296875 -31.421875 C 18.617188 -38.867188 17.28125 -47.160156 17.28125 -56.296875 L 17.28125 -157.875 C 17.28125 -167.007812 18.617188 -175.300781 21.296875 -182.75 C 23.984375 -190.195312 28.75 -196.601562 35.59375 -201.96875 C 42.445312 -207.332031 51.929688 -211.503906 64.046875 -214.484375 C 76.160156 -217.460938 91.453125 -218.953125 109.921875 -218.953125 C 128.390625 -218.953125 143.628906 -217.460938 155.640625 -214.484375 C 167.660156 -211.503906 177.09375 -207.332031 183.9375 -201.96875 C 190.789062 -196.601562 195.554688 -190.195312 198.234375 -182.75 C 200.921875 -175.300781 202.265625 -167.007812 202.265625 -157.875 Z M 84.90625 -67.03125 C 84.90625 -63.050781 86.390625 -59.722656 89.359375 -57.046875 C 92.335938 -54.367188 99.191406 -53.03125 109.921875 -53.03125 C 120.640625 -53.03125 127.488281 -54.367188 130.46875 -57.046875 C 133.445312 -59.722656 134.9375 -63.050781 134.9375 -67.03125 L 134.9375 -147.15625 C 134.9375 -150.925781 133.445312 -154.148438 130.46875 -156.828125 C 127.488281 -159.515625 120.640625 -160.859375 109.921875 -160.859375 C 99.191406 -160.859375 92.335938 -159.515625 89.359375 -156.828125 C 86.390625 -154.148438 84.90625 -150.925781 84.90625 -147.15625 Z M 84.90625 -67.03125 "/></g></g></g><g fill="#ff0000" fill-opacity="1"><g transform="translate(923.60375, 519.391537)"><g><path d="M 75.96875 0 L 31.28125 0 C 27.507812 0 24.773438 -0.84375 23.078125 -2.53125 C 21.390625 -4.21875 20.546875 -6.945312 20.546875 -10.71875 L 20.546875 -203.75 C 20.546875 -207.53125 21.390625 -210.265625 23.078125 -211.953125 C 24.773438 -213.640625 27.507812 -214.484375 31.28125 -214.484375 L 62.265625 -214.484375 C 66.035156 -214.484375 69.257812 -213.882812 71.9375 -212.6875 C 74.625 -211.5 77.253906 -209.414062 79.828125 -206.4375 L 137.625 -140.3125 L 137.625 -203.75 C 137.625 -207.53125 138.46875 -210.265625 140.15625 -211.953125 C 141.84375 -213.640625 144.570312 -214.484375 148.34375 -214.484375 L 193.03125 -214.484375 C 196.800781 -214.484375 199.53125 -213.640625 201.21875 -211.953125 C 202.90625 -210.265625 203.75 -207.53125 203.75 -203.75 L 203.75 -10.71875 C 203.75 -6.945312 202.90625 -4.21875 201.21875 -2.53125 C 199.53125 -0.84375 196.800781 0 193.03125 0 L 148.34375 0 C 144.570312 0 141.84375 -0.84375 140.15625 -2.53125 C 138.46875 -4.21875 137.625 -6.945312 137.625 -10.71875 L 137.625 -47.359375 L 86.6875 -109.03125 L 86.6875 -10.71875 C 86.6875 -6.945312 85.84375 -4.21875 84.15625 -2.53125 C 82.46875 -0.84375 79.738281 0 75.96875 0 Z M 75.96875 0 "/></g></g></g><g fill="#ff0000" fill-opacity="1"><g transform="translate(1147.913376, 519.391537)"><g><path d="M 129.28125 0 L 81.03125 0 C 77.25 0 74.515625 -0.84375 72.828125 -2.53125 C 71.140625 -4.21875 70.296875 -6.945312 70.296875 -10.71875 L 70.296875 -48.859375 L 24.71875 -109.921875 C 20.15625 -116.078125 17.128906 -121.4375 15.640625 -126 C 14.148438 -130.570312 13.40625 -137.425781 13.40625 -146.5625 L 13.40625 -203.75 C 13.40625 -207.53125 14.25 -210.265625 15.9375 -211.953125 C 17.625 -213.640625 20.351562 -214.484375 24.125 -214.484375 L 70 -214.484375 C 73.78125 -214.484375 76.515625 -213.640625 78.203125 -211.953125 C 79.890625 -210.265625 80.734375 -207.53125 80.734375 -203.75 L 80.734375 -154.90625 C 80.734375 -152.914062 80.832031 -150.828125 81.03125 -148.640625 C 81.226562 -146.460938 82.019531 -144.378906 83.40625 -142.390625 L 97.109375 -120.9375 C 98.109375 -119.15625 99.148438 -117.863281 100.234375 -117.0625 C 101.328125 -116.269531 102.671875 -115.875 104.265625 -115.875 L 107.234375 -115.875 C 108.828125 -115.875 110.171875 -116.269531 111.265625 -117.0625 C 112.359375 -117.863281 113.398438 -119.15625 114.390625 -120.9375 L 128.09375 -142.390625 C 129.476562 -144.378906 130.269531 -146.460938 130.46875 -148.640625 C 130.675781 -150.828125 130.78125 -152.914062 130.78125 -154.90625 L 130.78125 -203.75 C 130.78125 -207.53125 131.625 -210.265625 133.3125 -211.953125 C 135 -213.640625 137.726562 -214.484375 141.5 -214.484375 L 185.890625 -214.484375 C 189.660156 -214.484375 192.390625 -213.640625 194.078125 -211.953125 C 195.765625 -210.265625 196.609375 -207.53125 196.609375 -203.75 L 196.609375 -146.5625 C 196.609375 -137.425781 195.8125 -130.570312 194.21875 -126 C 192.632812 -121.4375 189.65625 -116.078125 185.28125 -109.921875 L 140.015625 -48.5625 L 140.015625 -10.71875 C 140.015625 -6.945312 139.164062 -4.21875 137.46875 -2.53125 C 135.78125 -0.84375 133.050781 0 129.28125 0 Z M 129.28125 0 "/></g></g></g><g fill="#00ffff" fill-opacity="1"><g transform="translate(82.400474, 504.91642)"><g><path d="M 98.296875 -151.921875 L 84.296875 -106.640625 L 131.078125 -106.640625 L 117.078125 -151.921875 C 116.273438 -153.710938 115.425781 -155.003906 114.53125 -155.796875 C 113.644531 -156.585938 112.601562 -156.984375 111.40625 -156.984375 L 103.96875 -156.984375 C 102.769531 -156.984375 101.722656 -156.585938 100.828125 -155.796875 C 99.941406 -155.003906 99.097656 -153.710938 98.296875 -151.921875 Z M 81.328125 -10.71875 C 81.328125 -6.945312 80.484375 -4.21875 78.796875 -2.53125 C 77.109375 -0.84375 74.375 0 70.59375 0 L 26.8125 0 C 23.039062 0 20.3125 -0.84375 18.625 -2.53125 C 16.9375 -4.21875 16.09375 -6.945312 16.09375 -10.71875 L 16.09375 -89.375 C 16.09375 -95.320312 17.035156 -102.171875 18.921875 -109.921875 C 20.804688 -117.671875 23.734375 -126.707031 27.703125 -137.03125 L 53.625 -204.65625 C 54.8125 -208.03125 56.644531 -210.507812 59.125 -212.09375 C 61.613281 -213.6875 64.84375 -214.484375 68.8125 -214.484375 L 148.953125 -214.484375 C 152.722656 -214.484375 155.847656 -213.6875 158.328125 -212.09375 C 160.804688 -210.507812 162.644531 -208.03125 163.84375 -204.65625 L 189.75 -137.03125 C 193.726562 -126.707031 196.660156 -117.671875 198.546875 -109.921875 C 200.429688 -102.171875 201.375 -95.320312 201.375 -89.375 L 201.375 -10.71875 C 201.375 -6.945312 200.53125 -4.21875 198.84375 -2.53125 C 197.15625 -0.84375 194.425781 0 190.65625 0 L 145.671875 0 C 141.691406 0 138.757812 -0.84375 136.875 -2.53125 C 134.988281 -4.21875 134.046875 -6.945312 134.046875 -10.71875 L 134.046875 -52.421875 L 81.328125 -52.421875 Z M 81.328125 -10.71875 "/></g></g></g><g fill="#00ffff" fill-opacity="1"><g transform="translate(299.858725, 504.91642)"><g><path d="M 75.96875 0 L 31.28125 0 C 27.507812 0 24.773438 -0.84375 23.078125 -2.53125 C 21.390625 -4.21875 20.546875 -6.945312 20.546875 -10.71875 L 20.546875 -203.75 C 20.546875 -207.53125 21.390625 -210.265625 23.078125 -211.953125 C 24.773438 -213.640625 27.507812 -214.484375 31.28125 -214.484375 L 62.265625 -214.484375 C 66.035156 -214.484375 69.257812 -213.882812 71.9375 -212.6875 C 74.625 -211.5 77.253906 -209.414062 79.828125 -206.4375 L 137.625 -140.3125 L 137.625 -203.75 C 137.625 -207.53125 138.46875 -210.265625 140.15625 -211.953125 C 141.84375 -213.640625 144.570312 -214.484375 148.34375 -214.484375 L 193.03125 -214.484375 C 196.800781 -214.484375 199.53125 -213.640625 201.21875 -211.953125 C 202.90625 -210.265625 203.75 -207.53125 203.75 -203.75 L 203.75 -10.71875 C 203.75 -6.945312 202.90625 -4.21875 201.21875 -2.53125 C 199.53125 -0.84375 196.800781 0 193.03125 0 L 148.34375 0 C 144.570312 0 141.84375 -0.84375 140.15625 -2.53125 C 138.46875 -4.21875 137.625 -6.945312 137.625 -10.71875 L 137.625 -47.359375 L 86.6875 -109.03125 L 86.6875 -10.71875 C 86.6875 -6.945312 85.84375 -4.21875 84.15625 -2.53125 C 82.46875 -0.84375 79.738281 0 75.96875 0 Z M 75.96875 0 "/></g></g></g><g fill="#00ffff" fill-opacity="1"><g transform="translate(524.168418, 504.91642)"><g><path d="M 121.84375 0 L 73.578125 0 C 69.804688 0 67.078125 -0.84375 65.390625 -2.53125 C 63.703125 -4.21875 62.859375 -6.945312 62.859375 -10.71875 L 62.859375 -156.984375 L 19.0625 -156.984375 C 15.289062 -156.984375 12.5625 -157.828125 10.875 -159.515625 C 9.1875 -161.203125 8.34375 -163.9375 8.34375 -167.71875 L 8.34375 -203.75 C 8.34375 -207.53125 9.1875 -210.265625 10.875 -211.953125 C 12.5625 -213.640625 15.289062 -214.484375 19.0625 -214.484375 L 176.34375 -214.484375 C 180.125 -214.484375 182.859375 -213.640625 184.546875 -211.953125 C 186.234375 -210.265625 187.078125 -207.53125 187.078125 -203.75 L 187.078125 -167.71875 C 187.078125 -163.9375 186.234375 -161.203125 184.546875 -159.515625 C 182.859375 -157.828125 180.125 -156.984375 176.34375 -156.984375 L 132.5625 -156.984375 L 132.5625 -10.71875 C 132.5625 -6.945312 131.71875 -4.21875 130.03125 -2.53125 C 128.34375 -0.84375 125.613281 0 121.84375 0 Z M 121.84375 0 "/></g></g></g><g fill="#00ffff" fill-opacity="1"><g transform="translate(719.582922, 504.91642)"><g><path d="M 202.265625 -56.296875 C 202.265625 -47.160156 200.921875 -38.867188 198.234375 -31.421875 C 195.554688 -23.972656 190.789062 -17.617188 183.9375 -12.359375 C 177.09375 -7.097656 167.660156 -2.976562 155.640625 0 C 143.628906 2.976562 128.390625 4.46875 109.921875 4.46875 C 91.453125 4.46875 76.160156 2.976562 64.046875 0 C 51.929688 -2.976562 42.445312 -7.097656 35.59375 -12.359375 C 28.75 -17.617188 23.984375 -23.972656 21.296875 -31.421875 C 18.617188 -38.867188 17.28125 -47.160156 17.28125 -56.296875 L 17.28125 -157.875 C 17.28125 -167.007812 18.617188 -175.300781 21.296875 -182.75 C 23.984375 -190.195312 28.75 -196.601562 35.59375 -201.96875 C 42.445312 -207.332031 51.929688 -211.503906 64.046875 -214.484375 C 76.160156 -217.460938 91.453125 -218.953125 109.921875 -218.953125 C 128.390625 -218.953125 143.628906 -217.460938 155.640625 -214.484375 C 167.660156 -211.503906 177.09375 -207.332031 183.9375 -201.96875 C 190.789062 -196.601562 195.554688 -190.195312 198.234375 -182.75 C 200.921875 -175.300781 202.265625 -167.007812 202.265625 -157.875 Z M 84.90625 -67.03125 C 84.90625 -63.050781 86.390625 -59.722656 89.359375 -57.046875 C 92.335938 -54.367188 99.191406 -53.03125 109.921875 -53.03125 C 120.640625 -53.03125 127.488281 -54.367188 130.46875 -57.046875 C 133.445312 -59.722656 134.9375 -63.050781 134.9375 -67.03125 L 134.9375 -147.15625 C 134.9375 -150.925781 133.445312 -154.148438 130.46875 -156.828125 C 127.488281 -159.515625 120.640625 -160.859375 109.921875 -160.859375 C 99.191406 -160.859375 92.335938 -159.515625 89.359375 -156.828125 C 86.390625 -154.148438 84.90625 -150.925781 84.90625 -147.15625 Z M 84.90625 -67.03125 "/></g></g></g><g fill="#00ffff" fill-opacity="1"><g transform="translate(939.126407, 504.91642)"><g><path d="M 75.96875 0 L 31.28125 0 C 27.507812 0 24.773438 -0.84375 23.078125 -2.53125 C 21.390625 -4.21875 20.546875 -6.945312 20.546875 -10.71875 L 20.546875 -203.75 C 20.546875 -207.53125 21.390625 -210.265625 23.078125 -211.953125 C 24.773438 -213.640625 27.507812 -214.484375 31.28125 -214.484375 L 62.265625 -214.484375 C 66.035156 -214.484375 69.257812 -213.882812 71.9375 -212.6875 C 74.625 -211.5 77.253906 -209.414062 79.828125 -206.4375 L 137.625 -140.3125 L 137.625 -203.75 C 137.625 -207.53125 138.46875 -210.265625 140.15625 -211.953125 C 141.84375 -213.640625 144.570312 -214.484375 148.34375 -214.484375 L 193.03125 -214.484375 C 196.800781 -214.484375 199.53125 -213.640625 201.21875 -211.953125 C 202.90625 -210.265625 203.75 -207.53125 203.75 -203.75 L 203.75 -10.71875 C 203.75 -6.945312 202.90625 -4.21875 201.21875 -2.53125 C 199.53125 -0.84375 196.800781 0 193.03125 0 L 148.34375 0 C 144.570312 0 141.84375 -0.84375 140.15625 -2.53125 C 138.46875 -4.21875 137.625 -6.945312 137.625 -10.71875 L 137.625 -47.359375 L 86.6875 -109.03125 L 86.6875 -10.71875 C 86.6875 -6.945312 85.84375 -4.21875 84.15625 -2.53125 C 82.46875 -0.84375 79.738281 0 75.96875 0 Z M 75.96875 0 "/></g></g></g><g fill="#00ffff" fill-opacity="1"><g transform="translate(1163.436033, 504.91642)"><g><path d="M 129.28125 0 L 81.03125 0 C 77.25 0 74.515625 -0.84375 72.828125 -2.53125 C 71.140625 -4.21875 70.296875 -6.945312 70.296875 -10.71875 L 70.296875 -48.859375 L 24.71875 -109.921875 C 20.15625 -116.078125 17.128906 -121.4375 15.640625 -126 C 14.148438 -130.570312 13.40625 -137.425781 13.40625 -146.5625 L 13.40625 -203.75 C 13.40625 -207.53125 14.25 -210.265625 15.9375 -211.953125 C 17.625 -213.640625 20.351562 -214.484375 24.125 -214.484375 L 70 -214.484375 C 73.78125 -214.484375 76.515625 -213.640625 78.203125 -211.953125 C 79.890625 -210.265625 80.734375 -207.53125 80.734375 -203.75 L 80.734375 -154.90625 C 80.734375 -152.914062 80.832031 -150.828125 81.03125 -148.640625 C 81.226562 -146.460938 82.019531 -144.378906 83.40625 -142.390625 L 97.109375 -120.9375 C 98.109375 -119.15625 99.148438 -117.863281 100.234375 -117.0625 C 101.328125 -116.269531 102.671875 -115.875 104.265625 -115.875 L 107.234375 -115.875 C 108.828125 -115.875 110.171875 -116.269531 111.265625 -117.0625 C 112.359375 -117.863281 113.398438 -119.15625 114.390625 -120.9375 L 128.09375 -142.390625 C 129.476562 -144.378906 130.269531 -146.460938 130.46875 -148.640625 C 130.675781 -150.828125 130.78125 -152.914062 130.78125 -154.90625 L 130.78125 -203.75 C 130.78125 -207.53125 131.625 -210.265625 133.3125 -211.953125 C 135 -213.640625 137.726562 -214.484375 141.5 -214.484375 L 185.890625 -214.484375 C 189.660156 -214.484375 192.390625 -213.640625 194.078125 -211.953125 C 195.765625 -210.265625 196.609375 -207.53125 196.609375 -203.75 L 196.609375 -146.5625 C 196.609375 -137.425781 195.8125 -130.570312 194.21875 -126 C 192.632812 -121.4375 189.65625 -116.078125 185.28125 -109.921875 L 140.015625 -48.5625 L 140.015625 -10.71875 C 140.015625 -6.945312 139.164062 -4.21875 137.46875 -2.53125 C 135.78125 -0.84375 133.050781 0 129.28125 0 Z M 129.28125 0 "/></g></g></g><g fill="#000000" fill-opacity="1"><g transform="translate(74.639146, 512.15398)"><g><path d="M 98.296875 -151.921875 L 84.296875 -106.640625 L 131.078125 -106.640625 L 117.078125 -151.921875 C 116.273438 -153.710938 115.425781 -155.003906 114.53125 -155.796875 C 113.644531 -156.585938 112.601562 -156.984375 111.40625 -156.984375 L 103.96875 -156.984375 C 102.769531 -156.984375 101.722656 -156.585938 100.828125 -155.796875 C 99.941406 -155.003906 99.097656 -153.710938 98.296875 -151.921875 Z M 81.328125 -10.71875 C 81.328125 -6.945312 80.484375 -4.21875 78.796875 -2.53125 C 77.109375 -0.84375 74.375 0 70.59375 0 L 26.8125 0 C 23.039062 0 20.3125 -0.84375 18.625 -2.53125 C 16.9375 -4.21875 16.09375 -6.945312 16.09375 -10.71875 L 16.09375 -89.375 C 16.09375 -95.320312 17.035156 -102.171875 18.921875 -109.921875 C 20.804688 -117.671875 23.734375 -126.707031 27.703125 -137.03125 L 53.625 -204.65625 C 54.8125 -208.03125 56.644531 -210.507812 59.125 -212.09375 C 61.613281 -213.6875 64.84375 -214.484375 68.8125 -214.484375 L 148.953125 -214.484375 C 152.722656 -214.484375 155.847656 -213.6875 158.328125 -212.09375 C 160.804688 -210.507812 162.644531 -208.03125 163.84375 -204.65625 L 189.75 -137.03125 C 193.726562 -126.707031 196.660156 -117.671875 198.546875 -109.921875 C 200.429688 -102.171875 201.375 -95.320312 201.375 -89.375 L 201.375 -10.71875 C 201.375 -6.945312 200.53125 -4.21875 198.84375 -2.53125 C 197.15625 -0.84375 194.425781 0 190.65625 0 L 145.671875 0 C 141.691406 0 138.757812 -0.84375 136.875 -2.53125 C 134.988281 -4.21875 134.046875 -6.945312 134.046875 -10.71875 L 134.046875 -52.421875 L 81.328125 -52.421875 Z M 81.328125 -10.71875 "/></g></g></g><g fill="#000000" fill-opacity="1"><g transform="translate(292.097397, 512.15398)"><g><path d="M 75.96875 0 L 31.28125 0 C 27.507812 0 24.773438 -0.84375 23.078125 -2.53125 C 21.390625 -4.21875 20.546875 -6.945312 20.546875 -10.71875 L 20.546875 -203.75 C 20.546875 -207.53125 21.390625 -210.265625 23.078125 -211.953125 C 24.773438 -213.640625 27.507812 -214.484375 31.28125 -214.484375 L 62.265625 -214.484375 C 66.035156 -214.484375 69.257812 -213.882812 71.9375 -212.6875 C 74.625 -211.5 77.253906 -209.414062 79.828125 -206.4375 L 137.625 -140.3125 L 137.625 -203.75 C 137.625 -207.53125 138.46875 -210.265625 140.15625 -211.953125 C 141.84375 -213.640625 144.570312 -214.484375 148.34375 -214.484375 L 193.03125 -214.484375 C 196.800781 -214.484375 199.53125 -213.640625 201.21875 -211.953125 C 202.90625 -210.265625 203.75 -207.53125 203.75 -203.75 L 203.75 -10.71875 C 203.75 -6.945312 202.90625 -4.21875 201.21875 -2.53125 C 199.53125 -0.84375 196.800781 0 193.03125 0 L 148.34375 0 C 144.570312 0 141.84375 -0.84375 140.15625 -2.53125 C 138.46875 -4.21875 137.625 -6.945312 137.625 -10.71875 L 137.625 -47.359375 L 86.6875 -109.03125 L 86.6875 -10.71875 C 86.6875 -6.945312 85.84375 -4.21875 84.15625 -2.53125 C 82.46875 -0.84375 79.738281 0 75.96875 0 Z M 75.96875 0 "/></g></g></g><g fill="#000000" fill-opacity="1"><g transform="translate(516.40709, 512.15398)"><g><path d="M 121.84375 0 L 73.578125 0 C 69.804688 0 67.078125 -0.84375 65.390625 -2.53125 C 63.703125 -4.21875 62.859375 -6.945312 62.859375 -10.71875 L 62.859375 -156.984375 L 19.0625 -156.984375 C 15.289062 -156.984375 12.5625 -157.828125 10.875 -159.515625 C 9.1875 -161.203125 8.34375 -163.9375 8.34375 -167.71875 L 8.34375 -203.75 C 8.34375 -207.53125 9.1875 -210.265625 10.875 -211.953125 C 12.5625 -213.640625 15.289062 -214.484375 19.0625 -214.484375 L 176.34375 -214.484375 C 180.125 -214.484375 182.859375 -213.640625 184.546875 -211.953125 C 186.234375 -210.265625 187.078125 -207.53125 187.078125 -203.75 L 187.078125 -167.71875 C 187.078125 -163.9375 186.234375 -161.203125 184.546875 -159.515625 C 182.859375 -157.828125 180.125 -156.984375 176.34375 -156.984375 L 132.5625 -156.984375 L 132.5625 -10.71875 C 132.5625 -6.945312 131.71875 -4.21875 130.03125 -2.53125 C 128.34375 -0.84375 125.613281 0 121.84375 0 Z M 121.84375 0 "/></g></g></g><g fill="#000000" fill-opacity="1"><g transform="translate(711.821593, 512.15398)"><g><path d="M 202.265625 -56.296875 C 202.265625 -47.160156 200.921875 -38.867188 198.234375 -31.421875 C 195.554688 -23.972656 190.789062 -17.617188 183.9375 -12.359375 C 177.09375 -7.097656 167.660156 -2.976562 155.640625 0 C 143.628906 2.976562 128.390625 4.46875 109.921875 4.46875 C 91.453125 4.46875 76.160156 2.976562 64.046875 0 C 51.929688 -2.976562 42.445312 -7.097656 35.59375 -12.359375 C 28.75 -17.617188 23.984375 -23.972656 21.296875 -31.421875 C 18.617188 -38.867188 17.28125 -47.160156 17.28125 -56.296875 L 17.28125 -157.875 C 17.28125 -167.007812 18.617188 -175.300781 21.296875 -182.75 C 23.984375 -190.195312 28.75 -196.601562 35.59375 -201.96875 C 42.445312 -207.332031 51.929688 -211.503906 64.046875 -214.484375 C 76.160156 -217.460938 91.453125 -218.953125 109.921875 -218.953125 C 128.390625 -218.953125 143.628906 -217.460938 155.640625 -214.484375 C 167.660156 -211.503906 177.09375 -207.332031 183.9375 -201.96875 C 190.789062 -196.601562 195.554688 -190.195312 198.234375 -182.75 C 200.921875 -175.300781 202.265625 -167.007812 202.265625 -157.875 Z M 84.90625 -67.03125 C 84.90625 -63.050781 86.390625 -59.722656 89.359375 -57.046875 C 92.335938 -54.367188 99.191406 -53.03125 109.921875 -53.03125 C 120.640625 -53.03125 127.488281 -54.367188 130.46875 -57.046875 C 133.445312 -59.722656 134.9375 -63.050781 134.9375 -67.03125 L 134.9375 -147.15625 C 134.9375 -150.925781 133.445312 -154.148438 130.46875 -156.828125 C 127.488281 -159.515625 120.640625 -160.859375 109.921875 -160.859375 C 99.191406 -160.859375 92.335938 -159.515625 89.359375 -156.828125 C 86.390625 -154.148438 84.90625 -150.925781 84.90625 -147.15625 Z M 84.90625 -67.03125 "/></g></g></g><g fill="#000000" fill-opacity="1"><g transform="translate(931.365078, 512.15398)"><g><path d="M 75.96875 0 L 31.28125 0 C 27.507812 0 24.773438 -0.84375 23.078125 -2.53125 C 21.390625 -4.21875 20.546875 -6.945312 20.546875 -10.71875 L 20.546875 -203.75 C 20.546875 -207.53125 21.390625 -210.265625 23.078125 -211.953125 C 24.773438 -213.640625 27.507812 -214.484375 31.28125 -214.484375 L 62.265625 -214.484375 C 66.035156 -214.484375 69.257812 -213.882812 71.9375 -212.6875 C 74.625 -211.5 77.253906 -209.414062 79.828125 -206.4375 L 137.625 -140.3125 L 137.625 -203.75 C 137.625 -207.53125 138.46875 -210.265625 140.15625 -211.953125 C 141.84375 -213.640625 144.570312 -214.484375 148.34375 -214.484375 L 193.03125 -214.484375 C 196.800781 -214.484375 199.53125 -213.640625 201.21875 -211.953125 C 202.90625 -210.265625 203.75 -207.53125 203.75 -203.75 L 203.75 -10.71875 C 203.75 -6.945312 202.90625 -4.21875 201.21875 -2.53125 C 199.53125 -0.84375 196.800781 0 193.03125 0 L 148.34375 0 C 144.570312 0 141.84375 -0.84375 140.15625 -2.53125 C 138.46875 -4.21875 137.625 -6.945312 137.625 -10.71875 L 137.625 -47.359375 L 86.6875 -109.03125 L 86.6875 -10.71875 C 86.6875 -6.945312 85.84375 -4.21875 84.15625 -2.53125 C 82.46875 -0.84375 79.738281 0 75.96875 0 Z M 75.96875 0 "/></g></g></g><g fill="#000000" fill-opacity="1"><g transform="translate(1155.674705, 512.15398)"><g><path d="M 129.28125 0 L 81.03125 0 C 77.25 0 74.515625 -0.84375 72.828125 -2.53125 C 71.140625 -4.21875 70.296875 -6.945312 70.296875 -10.71875 L 70.296875 -48.859375 L 24.71875 -109.921875 C 20.15625 -116.078125 17.128906 -121.4375 15.640625 -126 C 14.148438 -130.570312 13.40625 -137.425781 13.40625 -146.5625 L 13.40625 -203.75 C 13.40625 -207.53125 14.25 -210.265625 15.9375 -211.953125 C 17.625 -213.640625 20.351562 -214.484375 24.125 -214.484375 L 70 -214.484375 C 73.78125 -214.484375 76.515625 -213.640625 78.203125 -211.953125 C 79.890625 -210.265625 80.734375 -207.53125 80.734375 -203.75 L 80.734375 -154.90625 C 80.734375 -152.914062 80.832031 -150.828125 81.03125 -148.640625 C 81.226562 -146.460938 82.019531 -144.378906 83.40625 -142.390625 L 97.109375 -120.9375 C 98.109375 -119.15625 99.148438 -117.863281 100.234375 -117.0625 C 101.328125 -116.269531 102.671875 -115.875 104.265625 -115.875 L 107.234375 -115.875 C 108.828125 -115.875 110.171875 -116.269531 111.265625 -117.0625 C 112.359375 -117.863281 113.398438 -119.15625 114.390625 -120.9375 L 128.09375 -142.390625 C 129.476562 -144.378906 130.269531 -146.460938 130.46875 -148.640625 C 130.675781 -150.828125 130.78125 -152.914062 130.78125 -154.90625 L 130.78125 -203.75 C 130.78125 -207.53125 131.625 -210.265625 133.3125 -211.953125 C 135 -213.640625 137.726562 -214.484375 141.5 -214.484375 L 185.890625 -214.484375 C 189.660156 -214.484375 192.390625 -213.640625 194.078125 -211.953125 C 195.765625 -210.265625 196.609375 -207.53125 196.609375 -203.75 L 196.609375 -146.5625 C 196.609375 -137.425781 195.8125 -130.570312 194.21875 -126 C 192.632812 -121.4375 189.65625 -116.078125 185.28125 -109.921875 L 140.015625 -48.5625 L 140.015625 -10.71875 C 140.015625 -6.945312 139.164062 -4.21875 137.46875 -2.53125 C 135.78125 -0.84375 133.050781 0 129.28125 0 Z M 129.28125 0 "/></g></g></g></svg>